<svg width="939" height="489" viewBox="0 0 939 489" fill="none" xmlns="http://www.w3.org/2000/svg">
<path d="M472.69 523.23C445.08 523.23 422.69 500.84 422.69 473.23V362.61H50C22.39 362.61 0 340.22 0 312.61C0 285 22.39 262.61 50 262.61H201.36V152C201.36 124.39 223.75 102 251.36 102C278.97 102 301.36 124.39 301.36 152V262.62H666.47C694.08 262.62 716.47 285.01 716.47 312.62C716.47 340.23 694.08 362.62 666.47 362.62H522.69V473.24C522.69 500.85 500.3 523.24 472.69 523.24V523.23Z" fill="#FFE176"/>
<g clip-path="url(#clip0_747_1008)">
<path d="M76 310H56V315H76V310Z" fill="#FFD339"/>
<path d="M116 310H96V315H116V310Z" fill="#FFD339"/>
<path d="M156 310H136V315H156V310Z" fill="#FFD339"/>
<path d="M196 310H176V315H196V310Z" fill="#FFD339"/>
<path d="M236 310H216V315H236V310Z" fill="#FFD339"/>
<path d="M276 310H256V315H276V310Z" fill="#FFD339"/>
<path d="M316 310H296V315H316V310Z" fill="#FFD339"/>
<path d="M356 310H336V315H356V310Z" fill="#FFD339"/>
<path d="M396 310H376V315H396V310Z" fill="#FFD339"/>
<path d="M436 310H416V315H436V310Z" fill="#FFD339"/>
<path d="M476 310H456V315H476V310Z" fill="#FFD339"/>
<path d="M516 310H496V315H516V310Z" fill="#FFD339"/>
<path d="M556 310H536V315H556V310Z" fill="#FFD339"/>
<path d="M596 310H576V315H596V310Z" fill="#FFD339"/>
<path d="M636 310H616V315H636V310Z" fill="#FFD339"/>
<path d="M676 310H656V315H676V310Z" fill="#FFD339"/>
<path d="M716 310H696V315H716V310Z" fill="#FFD339"/>
</g>
<path d="M932.151 489.24C930.481 468.56 927.661 440.81 922.881 404.9C910.061 308.5 858.641 196.03 765.101 195.96H765.021C671.491 196.02 620.061 308.49 607.241 404.9C602.461 440.82 599.641 468.57 597.971 489.24H932.151Z" fill="#FDEBD6"/>
<path d="M787.22 133.22H742.9V204.32H787.22V133.22Z" fill="#FDEBD6"/>
<path d="M765.13 399.96C830.71 399.96 890.9 385.52 938.13 366.71C938.05 366.35 937.97 365.99 937.89 365.63C921.39 292.98 872.93 213.79 793.06 198.57C788.78 207.7 777.8 214.2 764.92 214.2C752.04 214.2 741.1 207.72 736.8 198.62C657.09 213.97 608.72 293.07 592.24 365.63C592.16 365.99 592.08 366.34 592 366.69C639.27 385.51 699.53 399.96 765.14 399.96H765.13Z" fill="#107850"/>
<path d="M887.64 489.24C886.37 472.77 884.4 451.81 881.38 425.74C871.93 344.3 834.03 249.29 765.09 249.24H765.03C696.09 249.29 658.19 344.3 648.74 425.74C645.72 451.8 643.75 472.77 642.48 489.24H887.63H887.64Z" fill="#107850"/>
<path d="M800.85 200.16C825.03 233.03 832.34 287.3 832.34 287.3C832.34 287.3 818.48 296.79 765.15 296.79H764.97C711.64 296.79 697.78 287.3 697.78 287.3C697.78 287.3 705.08 233.03 729.27 200.16C667.36 239.38 650.58 489.24 650.58 489.24H879.54C879.54 489.24 862.76 239.38 800.85 200.16Z" fill="#068A6D"/>
<path d="M731.879 322.03C731.879 324.45 730.479 325.93 728.269 326.38C727.649 326.5 726.629 326.5 725.929 326.5L720.549 326.46V328.51L715.789 324.61L720.549 320.71V322.76L726.589 322.8C727.159 322.8 727.409 322.47 727.409 322.14C727.409 321.53 726.839 321.32 725.109 320.5C722.359 319.18 720.219 318.24 720.219 315.24C720.219 312.9 721.899 311.3 724.369 310.97C724.859 310.89 725.809 310.89 726.379 310.89C727.609 310.89 731.059 310.97 731.059 310.97V314.71L725.389 314.63C724.899 314.63 724.649 314.96 724.649 315.29C724.649 315.78 725.059 315.98 726.659 316.73C730.029 318.29 731.879 319.15 731.879 322.03ZM740.789 321.73C740.789 322.42 740.169 323 739.059 323C737.859 323 737.329 322.43 737.329 321.73V310.93H732.689V322.1C732.689 324.56 734.739 326.9 739.009 326.9C743.279 326.9 745.329 324.6 745.329 322.1V310.93H740.769V321.73H740.779H740.789ZM759.599 321.81C759.599 324.89 757.509 326.57 754.469 326.57H746.789V310.92H754.179C757.509 310.92 759.189 312.77 759.189 315.19C759.189 316.42 758.619 317.49 757.459 318.27C758.819 319.01 759.589 320.16 759.589 321.8L759.599 321.81ZM751.349 317.13H753.479C754.299 317.13 754.679 316.56 754.679 315.73C754.679 314.9 754.309 314.33 753.479 314.33H751.349V317.12V317.13ZM754.959 321.6C754.959 320.66 754.509 320.12 753.689 320.12H751.349V323.08H753.689C754.549 323.08 754.959 322.51 754.959 321.6Z" fill="#EFB71D"/>
<path d="M774.958 310.95H779.518V321.96C779.518 324.51 777.708 326.81 773.888 326.81C772.248 326.81 770.968 326.32 770.068 325.58C769.168 326.32 767.938 326.81 766.408 326.81C762.338 326.81 760.658 324.51 760.658 321.96V310.95H765.218V321.87C765.218 322.32 765.468 322.9 766.488 322.9C767.508 322.9 767.798 322.37 767.798 321.87V310.95H772.358V321.87C772.358 322.32 772.608 322.9 773.628 322.9C774.648 322.9 774.938 322.37 774.938 321.87V310.95H774.958ZM799.148 317.11V310.95H794.628V317.52C794.628 319.7 796.108 321.34 798.608 322.04V326.56H803.248V322.04C805.798 321.35 807.188 319.7 807.188 317.52V315.1C807.188 314.85 807.308 314.73 807.558 314.73H809.568V316.7L814.328 312.8L809.568 308.9V310.87H806.408C803.738 310.87 802.628 312.43 802.628 314.65V317.11C802.628 317.68 802.218 318.38 800.858 318.38C799.498 318.38 799.128 317.69 799.128 317.11H799.138H799.148ZM793.478 315.43V326.6H788.918V322.04H785.468V326.56H780.908V315.44C780.908 312.65 783.208 310.52 787.188 310.52C791.168 310.52 793.468 312.61 793.468 315.44V315.43H793.478ZM788.918 318.46V315.67C788.918 314.93 788.388 314.4 787.188 314.4C785.988 314.4 785.458 314.93 785.458 315.67V318.46H788.918Z" fill="white"/>
<path d="M691.61 129.44C699.441 129.44 705.79 120.893 705.79 110.35C705.79 99.8069 699.441 91.26 691.61 91.26C683.778 91.26 677.43 99.8069 677.43 110.35C677.43 120.893 683.778 129.44 691.61 129.44Z" fill="#FDEBD6"/>
<path d="M838.51 129.44C846.341 129.44 852.69 120.893 852.69 110.35C852.69 99.8069 846.341 91.26 838.51 91.26C830.679 91.26 824.33 99.8069 824.33 110.35C824.33 120.893 830.679 129.44 838.51 129.44Z" fill="#FDEBD6"/>
<path d="M765.06 181.09C807.713 181.09 842.29 143.28 842.29 96.6399C842.29 49.9995 807.713 12.1899 765.06 12.1899C722.407 12.1899 687.83 49.9995 687.83 96.6399C687.83 143.28 722.407 181.09 765.06 181.09Z" fill="#FDEBD6"/>
<path d="M723.57 133.43C732.345 133.43 739.46 127.816 739.46 120.89C739.46 113.964 732.345 108.35 723.57 108.35C714.794 108.35 707.68 113.964 707.68 120.89C707.68 127.816 714.794 133.43 723.57 133.43Z" fill="#F7E2CF"/>
<path d="M802.999 133.43C811.775 133.43 818.889 127.816 818.889 120.89C818.889 113.964 811.775 108.35 802.999 108.35C794.224 108.35 787.109 113.964 787.109 120.89C787.109 127.816 794.224 133.43 802.999 133.43Z" fill="#F7E2CF"/>
<path d="M736.17 114.27C738.711 114.27 740.77 111.557 740.77 108.21C740.77 104.863 738.711 102.15 736.17 102.15C733.63 102.15 731.57 104.863 731.57 108.21C731.57 111.557 733.63 114.27 736.17 114.27Z" fill="#3D2E17"/>
<path d="M790.52 114.27C793.06 114.27 795.12 111.557 795.12 108.21C795.12 104.863 793.06 102.15 790.52 102.15C787.979 102.15 785.92 104.863 785.92 108.21C785.92 111.557 787.979 114.27 790.52 114.27Z" fill="#3D2E17"/>
<path d="M741.72 137.79C743.13 140.54 745.48 142.73 748.16 144.23C751.23 145.96 754.7 146.77 758.18 147.14C761.74 147.52 765.43 147.58 768.99 147.14C772.35 146.72 775.68 145.82 778.57 144.01C781.46 142.2 783.85 139.57 785.04 136.32C785.21 135.86 784.85 135.33 784.41 135.21C783.91 135.07 783.47 135.38 783.3 135.84C782.38 138.36 780.53 140.49 778.34 142C775.79 143.76 772.85 144.74 769.81 145.22C766.48 145.75 763.03 145.72 759.68 145.48C756.42 145.25 753.09 144.66 750.12 143.23C747.15 141.8 744.75 139.75 743.28 136.89C742.75 135.86 741.2 136.77 741.72 137.8V137.79Z" fill="#E0B290"/>
<path d="M765.06 0C722.41 0 687.83 40.57 687.83 90.61C698.17 77.64 732.66 64.68 765.06 64.68C797.46 64.68 831.95 77.65 842.29 90.61C842.29 40.57 807.72 0 765.06 0Z" fill="#107850"/>
<path d="M757.199 40.83H765.639C765.639 40.83 766.319 40.82 766.319 40.25C766.319 39.74 765.609 39.45 765.609 39.45L762.689 37.97C762.689 37.97 760.289 37.03 760.289 34.59C760.289 30.72 764.609 30.96 764.609 30.96H769.319V33.9L776.359 28.07L769.329 22.24V25.18H763.179C763.179 25.18 758.509 25.34 755.829 28.03C754.289 29.57 753.359 31.5 753.359 34.08C753.359 35.58 753.809 37.07 754.549 38.35C755.479 39.96 757.209 40.83 757.209 40.83H757.199Z" fill="white"/>
<path d="M772.709 33.8999H764.269C764.269 33.8999 763.589 33.9099 763.589 34.4799C763.589 34.9899 764.299 35.2799 764.299 35.2799L767.219 36.7599C767.219 36.7599 769.619 37.6999 769.619 40.1399C769.619 44.0099 765.299 43.7699 765.299 43.7699H760.589V40.8299L753.549 46.6599L760.579 52.4899V49.5499H766.729C766.729 49.5499 771.409 49.6099 774.259 46.7599C775.799 45.2199 776.749 43.0299 776.749 40.4499C776.749 38.9499 776.299 37.8999 775.559 36.6199C774.629 35.0099 772.689 33.9099 772.689 33.9099L772.709 33.8999Z" fill="#FFC418"/>
<path d="M842.29 90.6099C832.12 76.8599 798.53 63.1399 766.98 63.1399C766.34 63.1399 765.7 63.1399 765.06 63.1599C764.42 63.1499 763.78 63.1399 763.14 63.1399C731.59 63.1399 698 76.8599 687.83 90.6099C687.83 90.6099 687.83 90.6199 687.84 90.6299C687.85 90.6399 687.87 90.6599 687.88 90.6799C726.52 127.11 729.01 77.3699 765.01 77.2799H765.1C801.1 77.3699 803.59 127.11 842.23 90.6799C842.23 90.6799 842.26 90.6499 842.27 90.6299C842.27 90.6299 842.27 90.6199 842.28 90.6099H842.29Z" fill="#086441"/>
<path d="M765.111 77.23H765.021C729.021 77.32 726.531 127.06 687.891 90.63C691.471 95 695.301 99.27 700.041 102.36C704.771 105.45 710.541 107.28 716.111 106.35C723.411 105.13 729.081 99.57 734.531 94.56C739.711 89.8 745.211 85.25 751.571 82.23C755.701 80.26 760.081 79.28 764.561 78.71C764.901 78.67 765.241 78.67 765.581 78.71C770.071 79.28 774.451 80.27 778.571 82.23C784.931 85.26 790.431 89.8 795.611 94.56C801.061 99.57 806.731 105.13 814.031 106.35C819.601 107.28 825.371 105.45 830.101 102.36C834.831 99.27 838.661 95 842.251 90.63C803.611 127.06 801.121 77.31 765.121 77.23H765.111Z" fill="#FFC418"/>
<path d="M472.512 123C479.971 123 486.023 128.97 486.023 136.333C486.023 143.696 480.626 152.943 472.512 159.27C464.397 152.943 459 143.696 459 136.333C459 128.97 465.047 123 472.512 123Z" fill="#FF7926"/>
<path d="M472.511 140.448C475.604 140.448 478.111 137.941 478.111 134.849C478.111 131.757 475.604 129.25 472.511 129.25C469.419 129.25 466.912 131.757 466.912 134.849C466.912 137.941 469.419 140.448 472.511 140.448Z" fill="white"/>
<g clip-path="url(#clip1_747_1008)">
<path d="M420 173.02V245.95C420 247.62 421.35 248.97 423.02 248.97H451.24C452.91 248.97 454.26 247.62 454.26 245.95V224.5C454.26 222.83 455.61 221.48 457.28 221.48H488.02C489.69 221.48 491.04 222.83 491.04 224.5V245.95C491.04 247.62 492.39 248.97 494.06 248.97H522.29C523.96 248.97 525.31 247.62 525.31 245.95V173.02C525.31 171.35 523.96 170 522.29 170H423.02C421.35 170 420 171.35 420 173.02Z" fill="#FFF4CF"/>
<path d="M446.87 199.24C446.87 201.18 445.75 202.36 443.98 202.72C443.49 202.82 442.67 202.82 442.11 202.82L437.81 202.79V204.43L434 201.31L437.81 198.19V199.83L442.64 199.86C443.1 199.86 443.3 199.6 443.3 199.34C443.3 198.85 442.84 198.68 441.46 198.03C439.26 196.98 437.56 196.22 437.56 193.83C437.56 191.96 438.91 190.68 440.88 190.42C441.27 190.35 442.03 190.35 442.49 190.35C443.48 190.35 446.23 190.42 446.23 190.42V193.41L441.7 193.34C441.31 193.34 441.11 193.6 441.11 193.86C441.11 194.25 441.44 194.42 442.72 195.01C445.41 196.26 446.89 196.95 446.89 199.24H446.87ZM453.99 199C453.99 199.56 453.5 200.02 452.61 200.02C451.65 200.02 451.23 199.56 451.23 199V190.36H447.52V199.29C447.52 201.26 449.16 203.13 452.57 203.13C455.98 203.13 457.62 201.29 457.62 199.29V190.36H453.97V199H453.98H453.99ZM469.02 199.07C469.02 201.53 467.35 202.88 464.92 202.88H458.78V190.37H464.69C467.35 190.37 468.7 191.85 468.7 193.78C468.7 194.77 468.24 195.62 467.32 196.24C468.4 196.83 469.02 197.75 469.02 199.06V199.07ZM462.42 195.33H464.12C464.78 195.33 465.08 194.87 465.08 194.21C465.08 193.55 464.78 193.09 464.12 193.09H462.42V195.32V195.33ZM465.31 198.91C465.31 198.16 464.95 197.73 464.29 197.73H462.42V200.09H464.29C464.98 200.09 465.31 199.63 465.31 198.91Z" fill="#EFB71D"/>
<path d="M481.301 190.38H484.951V199.18C484.951 201.21 483.511 203.05 480.451 203.05C479.141 203.05 478.121 202.66 477.401 202.06C476.681 202.65 475.701 203.05 474.481 203.05C471.231 203.05 469.881 201.21 469.881 199.18V190.38H473.531V199.11C473.531 199.47 473.731 199.93 474.551 199.93C475.371 199.93 475.601 199.5 475.601 199.11V190.38H479.251V199.11C479.251 199.47 479.451 199.93 480.271 199.93C481.091 199.93 481.321 199.5 481.321 199.11V190.38H481.301ZM500.631 195.3V190.38H497.021V195.63C497.021 197.37 498.201 198.68 500.201 199.24V202.85H503.911V199.24C505.941 198.68 507.061 197.37 507.061 195.63V193.69C507.061 193.49 507.161 193.39 507.361 193.39H508.971V194.96L512.781 191.84L508.971 188.72V190.29H506.441C504.301 190.29 503.421 191.54 503.421 193.31V195.28C503.421 195.74 503.091 196.3 502.011 196.3C500.931 196.3 500.631 195.74 500.631 195.28H500.641L500.631 195.3ZM496.101 193.95V202.88H492.451V199.23H489.691V202.84H486.041V193.95C486.041 191.72 487.881 190.01 491.061 190.01C494.241 190.01 496.081 191.68 496.081 193.95H496.101ZM492.451 196.38V194.15C492.451 193.56 492.021 193.13 491.071 193.13C490.121 193.13 489.691 193.56 489.691 194.15V196.38H492.451Z" fill="#109246"/>
</g>
<defs>
<clipPath id="clip0_747_1008">
<rect width="660" height="5" fill="white" transform="translate(56 310)"/>
</clipPath>
<clipPath id="clip1_747_1008">
<rect width="105.29" height="78.97" fill="white" transform="translate(420 170)"/>
</clipPath>
</defs>
</svg>
