<svg width="897" height="500" viewBox="0 0 897 500" fill="none" xmlns="http://www.w3.org/2000/svg">
<path d="M451.695 499.99C425.312 499.99 403.916 478.595 403.916 452.211V346.504H47.7792C21.3955 346.504 0 325.109 0 298.725C0 272.341 21.3955 250.946 47.7792 250.946H192.417V145.249C192.417 118.865 213.812 97.4695 240.196 97.4695C266.58 97.4695 287.975 118.865 287.975 145.249V250.955H636.869C663.252 250.955 684.648 272.351 684.648 298.735C684.648 325.118 663.252 346.514 636.869 346.514H499.475V452.221C499.475 478.604 478.079 500 451.695 500V499.99Z" fill="#FFE176"/>
<g clip-path="url(#clip0_763_1120)">
<path d="M72.6117 296.233H53.5V301.011H72.6117V296.233Z" fill="#FFD339"/>
<path d="M110.834 296.233H91.7227V301.011H110.834V296.233Z" fill="#FFD339"/>
<path d="M149.059 296.233H129.947V301.011H149.059V296.233Z" fill="#FFD339"/>
<path d="M187.282 296.233H168.17V301.011H187.282V296.233Z" fill="#FFD339"/>
<path d="M225.506 296.233H206.395V301.011H225.506V296.233Z" fill="#FFD339"/>
<path d="M263.729 296.233H244.617V301.011H263.729V296.233Z" fill="#FFD339"/>
<path d="M301.952 296.233H282.84V301.011H301.952V296.233Z" fill="#FFD339"/>
<path d="M340.176 296.233H321.064V301.011H340.176V296.233Z" fill="#FFD339"/>
<path d="M378.399 296.233H359.287V301.011H378.399V296.233Z" fill="#FFD339"/>
<path d="M416.621 296.233H397.51V301.011H416.621V296.233Z" fill="#FFD339"/>
<path d="M454.846 296.233H435.734V301.011H454.846V296.233Z" fill="#FFD339"/>
<path d="M493.069 296.233H473.957V301.011H493.069V296.233Z" fill="#FFD339"/>
<path d="M531.291 296.233H512.18V301.011H531.291V296.233Z" fill="#FFD339"/>
<path d="M569.516 296.233H550.404V301.011H569.516V296.233Z" fill="#FFD339"/>
<path d="M607.739 296.233H588.627V301.011H607.739V296.233Z" fill="#FFD339"/>
<path d="M645.963 296.233H626.852V301.011H645.963V296.233Z" fill="#FFD339"/>
<path d="M684.186 296.233H665.074V301.011H684.186V296.233Z" fill="#FFD339"/>
</g>
<path d="M890.662 467.511C889.066 447.75 886.371 421.232 881.803 386.917C869.553 294.799 820.417 187.324 731.031 187.258H730.955C641.579 187.315 592.433 294.789 580.183 386.917C575.615 421.242 572.92 447.759 571.324 467.511H890.662Z" fill="#FDEBD6"/>
<path d="M752.158 127.304H709.807V195.246H752.158V127.304Z" fill="#FDEBD6"/>
<path d="M731.071 382.198C793.739 382.198 851.255 368.399 896.387 350.424C896.311 350.08 896.235 349.736 896.158 349.392C880.391 279.969 834.083 204.296 757.761 189.752C753.671 198.477 743.179 204.688 730.871 204.688C718.563 204.688 708.109 198.496 704 189.8C627.83 204.468 581.608 280.055 565.86 349.392C565.784 349.736 565.707 350.071 565.631 350.405C610.801 368.389 668.385 382.198 731.081 382.198H731.071Z" fill="#107850"/>
<path d="M848.158 467.509C846.944 451.771 845.062 431.742 842.176 406.829C833.146 329.007 796.929 238.216 731.051 238.169H730.994C665.116 238.216 628.899 329.007 619.869 406.829C616.983 431.732 615.1 451.771 613.887 467.509H848.148H848.158Z" fill="#107850"/>
<path d="M765.229 191.271C788.335 222.681 795.32 274.541 795.32 274.541C795.32 274.541 782.076 283.609 731.114 283.609H730.942C679.981 283.609 666.736 274.541 666.736 274.541C666.736 274.541 673.712 222.681 696.828 191.271C637.668 228.749 621.633 467.512 621.633 467.512H840.424C840.424 467.512 824.389 228.749 765.229 191.271Z" fill="#068A6D"/>
<path d="M699.305 307.723C699.305 310.036 697.967 311.45 695.855 311.88C695.263 311.995 694.288 311.995 693.619 311.995L688.478 311.956V313.915L683.93 310.188L688.478 306.462V308.421L694.25 308.459C694.795 308.459 695.034 308.144 695.034 307.828C695.034 307.245 694.489 307.045 692.836 306.261C690.208 305 688.163 304.101 688.163 301.235C688.163 298.999 689.768 297.47 692.129 297.154C692.597 297.078 693.505 297.078 694.049 297.078C695.225 297.078 698.521 297.154 698.521 297.154V300.728L693.103 300.652C692.635 300.652 692.396 300.967 692.396 301.282C692.396 301.751 692.788 301.942 694.317 302.658C697.537 304.149 699.305 304.971 699.305 307.723ZM707.819 307.436C707.819 308.096 707.227 308.65 706.166 308.65C705.019 308.65 704.513 308.105 704.513 307.436V297.116H700.079V307.79C700.079 310.141 702.038 312.377 706.118 312.377C710.199 312.377 712.158 310.179 712.158 307.79V297.116H707.8V307.436H707.81H707.819ZM725.794 307.513C725.794 310.456 723.797 312.061 720.892 312.061H713.553V297.107H720.615C723.797 297.107 725.402 298.874 725.402 301.187C725.402 302.362 724.857 303.385 723.749 304.13C725.048 304.837 725.784 305.936 725.784 307.503L725.794 307.513ZM717.91 303.041H719.946C720.729 303.041 721.092 302.496 721.092 301.703C721.092 300.91 720.739 300.365 719.946 300.365H717.91V303.031V303.041ZM721.36 307.312C721.36 306.414 720.93 305.898 720.146 305.898H717.91V308.726H720.146C720.968 308.726 721.36 308.182 721.36 307.312Z" fill="#EFB71D"/>
<path d="M740.47 297.139H744.827V307.66C744.827 310.097 743.097 312.294 739.447 312.294C737.88 312.294 736.657 311.826 735.797 311.119C734.937 311.826 733.761 312.294 732.299 312.294C728.41 312.294 726.805 310.097 726.805 307.66V297.139H731.162V307.574C731.162 308.004 731.401 308.558 732.376 308.558C733.35 308.558 733.628 308.052 733.628 307.574V297.139H737.985V307.574C737.985 308.004 738.224 308.558 739.199 308.558C740.173 308.558 740.45 308.052 740.45 307.574V297.139H740.47ZM763.585 303.025V297.139H759.266V303.417C759.266 305.5 760.68 307.067 763.069 307.736V312.056H767.503V307.736C769.94 307.077 771.268 305.5 771.268 303.417V301.105C771.268 300.866 771.383 300.751 771.622 300.751H773.542V302.634L778.091 298.907L773.542 295.18V297.062H770.523C767.971 297.062 766.911 298.553 766.911 300.675V303.025C766.911 303.57 766.519 304.239 765.219 304.239C763.92 304.239 763.566 303.58 763.566 303.025H763.576H763.585ZM758.167 301.42V312.094H753.81V307.736H750.513V312.056H746.155V301.429C746.155 298.763 748.353 296.728 752.156 296.728C755.96 296.728 758.157 298.725 758.157 301.429V301.42H758.167ZM753.81 304.315V301.649C753.81 300.942 753.303 300.436 752.156 300.436C751.01 300.436 750.503 300.942 750.503 301.649V304.315H753.81Z" fill="white"/>
<path d="M660.894 123.69C668.377 123.69 674.444 115.523 674.444 105.448C674.444 95.3733 668.377 87.2061 660.894 87.2061C653.41 87.2061 647.344 95.3733 647.344 105.448C647.344 115.523 653.41 123.69 660.894 123.69Z" fill="#FDEBD6"/>
<path d="M801.249 123.69C808.733 123.69 814.8 115.523 814.8 105.448C814.8 95.3733 808.733 87.2061 801.249 87.2061C793.766 87.2061 787.699 95.3733 787.699 105.448C787.699 115.523 793.766 123.69 801.249 123.69Z" fill="#FDEBD6"/>
<path d="M731.091 173.045C771.849 173.045 804.891 136.915 804.891 92.3457C804.891 47.7767 771.849 11.6465 731.091 11.6465C690.332 11.6465 657.291 47.7767 657.291 92.3457C657.291 136.915 690.332 173.045 731.091 173.045Z" fill="#FDEBD6"/>
<path d="M691.434 127.499C699.82 127.499 706.618 122.134 706.618 115.516C706.618 108.898 699.82 103.533 691.434 103.533C683.048 103.533 676.25 108.898 676.25 115.516C676.25 122.134 683.048 127.499 691.434 127.499Z" fill="#F7E2CF"/>
<path d="M767.323 127.499C775.709 127.499 782.507 122.134 782.507 115.516C782.507 108.898 775.709 103.533 767.323 103.533C758.937 103.533 752.139 108.898 752.139 115.516C752.139 122.134 758.937 127.499 767.323 127.499Z" fill="#F7E2CF"/>
<path d="M703.466 109.194C705.894 109.194 707.862 106.602 707.862 103.404C707.862 100.205 705.894 97.6128 703.466 97.6128C701.038 97.6128 699.07 100.205 699.07 103.404C699.07 106.602 701.038 109.194 703.466 109.194Z" fill="#3D2E17"/>
<path d="M755.413 109.194C757.841 109.194 759.809 106.602 759.809 103.404C759.809 100.205 757.841 97.6128 755.413 97.6128C752.986 97.6128 751.018 100.205 751.018 103.404C751.018 106.602 752.986 109.194 755.413 109.194Z" fill="#3D2E17"/>
<path d="M708.767 131.666C710.114 134.294 712.36 136.387 714.92 137.82C717.854 139.474 721.17 140.248 724.495 140.601C727.897 140.964 731.423 141.022 734.825 140.601C738.036 140.2 741.218 139.34 743.98 137.61C746.741 135.881 749.025 133.367 750.162 130.262C750.325 129.822 749.981 129.316 749.56 129.201C749.083 129.067 748.662 129.364 748.5 129.803C747.621 132.211 745.853 134.247 743.76 135.69C741.323 137.371 738.514 138.308 735.609 138.766C732.427 139.273 729.13 139.244 725.929 139.015C722.814 138.795 719.631 138.231 716.793 136.865C713.955 135.498 711.662 133.539 710.257 130.806C709.751 129.822 708.27 130.692 708.767 131.676V131.666Z" fill="#E0B290"/>
<path d="M731.056 0C690.3 0 657.256 38.7681 657.256 86.5855C667.137 74.1916 700.095 61.8072 731.056 61.8072C762.017 61.8072 794.975 74.2012 804.856 86.5855C804.856 38.7681 771.821 0 731.056 0Z" fill="#107850"/>
<path d="M723.546 39.0175H731.612C731.612 39.0175 732.261 39.0079 732.261 38.4633C732.261 37.9759 731.583 37.6988 731.583 37.6988L728.793 36.2845C728.793 36.2845 726.499 35.3863 726.499 33.0546C726.499 29.3565 730.627 29.5859 730.627 29.5859H735.128V32.3953L741.855 26.8242L735.138 21.2532V24.0626H729.261C729.261 24.0626 724.798 24.2155 722.237 26.786C720.766 28.2576 719.877 30.1019 719.877 32.5673C719.877 34.0007 720.307 35.4245 721.014 36.6476C721.903 38.1861 723.556 39.0175 723.556 39.0175H723.546Z" fill="white"/>
<path d="M738.377 32.3975H730.312C730.312 32.3975 729.662 32.407 729.662 32.9517C729.662 33.439 730.341 33.7162 730.341 33.7162L733.131 35.1304C733.131 35.1304 735.425 36.0287 735.425 38.3603C735.425 42.0584 731.296 41.8291 731.296 41.8291H726.796V39.0197L720.068 44.5907L726.786 50.1618V47.3524H732.663C732.663 47.3524 737.135 47.4097 739.858 44.6863C741.33 43.2147 742.238 41.1219 742.238 38.6565C742.238 37.2232 741.808 36.2198 741.101 34.9966C740.212 33.4582 738.358 32.407 738.358 32.407L738.377 32.3975Z" fill="#FFC418"/>
<path d="M804.856 86.5876C795.137 73.4483 763.039 60.3376 732.89 60.3376C732.279 60.3376 731.667 60.3376 731.056 60.3568C730.444 60.3472 729.833 60.3376 729.221 60.3376C699.072 60.3376 666.974 73.4483 657.256 86.5876C657.256 86.5876 657.256 86.5971 657.265 86.6067C657.275 86.6162 657.294 86.6353 657.304 86.6545C694.227 121.466 696.607 73.9356 731.008 73.8496H731.094C765.495 73.9356 767.874 121.466 804.798 86.6545C804.798 86.6545 804.827 86.6258 804.836 86.6067C804.836 86.6067 804.836 86.5971 804.846 86.5876H804.856Z" fill="#086441"/>
<path d="M731.109 73.8013H731.023C696.622 73.8873 694.242 121.418 657.318 86.6061C660.739 90.782 664.399 94.8624 668.929 97.8151C673.449 100.768 678.962 102.517 684.285 101.628C691.261 100.462 696.679 95.149 701.887 90.3616C706.837 85.813 712.092 81.4651 718.17 78.5792C722.117 76.6967 726.302 75.7602 730.583 75.2155C730.908 75.1773 731.233 75.1773 731.558 75.2155C735.848 75.7602 740.034 76.7062 743.971 78.5792C750.048 81.4746 755.304 85.813 760.254 90.3616C765.462 95.149 770.88 100.462 777.856 101.628C783.178 102.517 788.692 100.768 793.212 97.8151C797.732 94.8624 801.392 90.782 804.822 86.6061C767.899 121.418 765.519 73.8777 731.118 73.8013H731.109Z" fill="#FFC418"/>
<path d="M451.529 117.535C458.657 117.535 464.44 123.24 464.44 130.276C464.44 137.312 459.283 146.148 451.529 152.194C443.774 146.148 438.617 137.312 438.617 130.276C438.617 123.24 444.396 117.535 451.529 117.535Z" fill="#FF7926"/>
<path d="M451.511 134.207C454.466 134.207 456.861 131.812 456.861 128.857C456.861 125.902 454.466 123.506 451.511 123.506C448.556 123.506 446.16 125.902 446.16 128.857C446.16 131.812 448.556 134.207 451.511 134.207Z" fill="white"/>
<g clip-path="url(#clip1_763_1120)">
<path d="M401.342 165.333V235.024C401.342 236.62 402.632 237.91 404.228 237.91H431.194C432.79 237.91 434.08 236.62 434.08 235.024V214.526C434.08 212.931 435.37 211.641 436.966 211.641H466.341C467.937 211.641 469.227 212.931 469.227 214.526V235.024C469.227 236.62 470.517 237.91 472.112 237.91H499.089C500.684 237.91 501.974 236.62 501.974 235.024V165.333C501.974 163.737 500.684 162.447 499.089 162.447H404.228C402.632 162.447 401.342 163.737 401.342 165.333Z" fill="#FFF4CF"/>
<path d="M427.019 190.388C427.019 192.242 425.949 193.37 424.257 193.714C423.789 193.809 423.006 193.809 422.47 193.809L418.361 193.781V195.348L414.721 192.366L418.361 189.385V190.952L422.977 190.981C423.417 190.981 423.608 190.732 423.608 190.484C423.608 190.016 423.168 189.853 421.849 189.232C419.747 188.229 418.123 187.502 418.123 185.219C418.123 183.432 419.413 182.208 421.295 181.96C421.668 181.893 422.394 181.893 422.834 181.893C423.78 181.893 426.408 181.96 426.408 181.96V184.817L422.079 184.75C421.706 184.75 421.515 184.999 421.515 185.247C421.515 185.62 421.83 185.782 423.053 186.346C425.624 187.541 427.038 188.2 427.038 190.388H427.019ZM433.823 190.159C433.823 190.694 433.355 191.134 432.504 191.134C431.587 191.134 431.185 190.694 431.185 190.159V181.903H427.64V190.436C427.64 192.318 429.207 194.105 432.466 194.105C435.724 194.105 437.292 192.347 437.292 190.436V181.903H433.804V190.159H433.813H433.823ZM448.185 190.226C448.185 192.577 446.589 193.867 444.267 193.867H438.4V181.912H444.048C446.589 181.912 447.879 183.326 447.879 185.171C447.879 186.117 447.44 186.929 446.561 187.521C447.593 188.085 448.185 188.964 448.185 190.216V190.226ZM441.878 186.652H443.503C444.134 186.652 444.42 186.212 444.42 185.582C444.42 184.951 444.134 184.511 443.503 184.511H441.878V186.642V186.652ZM444.64 190.073C444.64 189.356 444.296 188.945 443.665 188.945H441.878V191.2H443.665C444.325 191.2 444.64 190.761 444.64 190.073Z" fill="#EFB71D"/>
<path d="M459.921 181.922H463.408V190.331C463.408 192.271 462.032 194.029 459.108 194.029C457.857 194.029 456.882 193.656 456.194 193.083C455.506 193.647 454.569 194.029 453.404 194.029C450.298 194.029 449.008 192.271 449.008 190.331V181.922H452.496V190.264C452.496 190.608 452.687 191.048 453.47 191.048C454.254 191.048 454.474 190.637 454.474 190.264V181.922H457.962V190.264C457.962 190.608 458.153 191.048 458.936 191.048C459.72 191.048 459.94 190.637 459.94 190.264V181.922H459.921ZM478.392 186.623V181.922H474.942V186.939C474.942 188.601 476.07 189.853 477.981 190.388V193.838H481.526V190.388C483.466 189.853 484.536 188.601 484.536 186.939V185.085C484.536 184.894 484.632 184.798 484.823 184.798H486.362V186.298L490.002 183.317L486.362 180.335V181.836H483.944C481.899 181.836 481.058 183.03 481.058 184.722V186.604C481.058 187.044 480.743 187.579 479.711 187.579C478.679 187.579 478.392 187.044 478.392 186.604H478.402L478.392 186.623ZM474.063 185.333V193.867H470.575V190.379H467.938V193.828H464.45V185.333C464.45 183.202 466.208 181.568 469.247 181.568C472.286 181.568 474.044 183.164 474.044 185.333H474.063ZM470.575 187.655V185.524C470.575 184.96 470.164 184.55 469.257 184.55C468.349 184.55 467.938 184.96 467.938 185.524V187.655H470.575Z" fill="#109246"/>
</g>
<defs>
<clipPath id="clip0_763_1120">
<rect width="630.686" height="4.77792" fill="white" transform="translate(53.5 296.233)"/>
</clipPath>
<clipPath id="clip1_763_1120">
<rect width="100.614" height="75.4625" fill="white" transform="translate(401.342 162.447)"/>
</clipPath>
</defs>
</svg>
