<?xml version="1.0" encoding="UTF-8"?>
<svg xmlns="http://www.w3.org/2000/svg" viewBox="0 0 961.49 1359.01">
  <defs>
    <style>
      .cls-1 {
        fill: #008a6d;
      }

      .cls-2 {
        fill: #09774f;
      }

      .cls-3 {
        fill: #fff;
      }

      .cls-4 {
        fill: #e0b190;
      }

      .cls-5 {
        fill: #fdebd6;
      }

      .cls-6 {
        fill: #f0b71c;
      }

      .cls-7 {
        fill: #3d2d13;
      }

      .cls-8 {
        fill: #f8e3cf;
      }

      .cls-9 {
        fill: #066340;
      }

      .cls-10 {
        fill: #ffc314;
      }
    </style>
  </defs>
  <g>
    <g>
      <g>
        <g>
          <path class="cls-5" d="M944.88,1359.01c-4.63-57.44-12.48-134.52-25.75-234.29-35.6-267.79-178.45-580.21-438.28-580.39h0s0,0,0,0c-.04,0-.07,0-.11,0s-.07,0-.11,0h0c-259.82,.18-402.68,312.6-438.28,580.39-13.27,99.78-21.12,176.85-25.75,234.29H944.88Z"/>
          <rect class="cls-5" x="419.2" y="370.06" width="123.1" height="197.51"/>
        </g>
        <g>
          <path class="cls-2" d="M480.94,1111.01c182.17,0,349.37-40.12,480.55-92.36-.23-1.01-.45-1.99-.68-3-45.82-201.8-180.44-421.78-402.32-464.06-11.89,25.37-42.4,43.42-78.17,43.42s-66.16-17.99-78.1-43.28C180.8,594.37,46.44,814.08,.66,1015.65c-.22,.99-.44,1.96-.66,2.94,131.32,52.27,298.7,92.42,480.94,92.42Z"/>
          <path class="cls-2" d="M821.24,1359.01c-3.53-45.75-8.99-103.98-17.38-176.38-26.24-226.22-131.53-490.14-323.03-490.29h0s0,0,0,0c-.03,0-.05,0-.08,0s-.05,0-.08,0h0c-191.5,.15-296.79,264.07-323.03,490.29-8.4,72.4-13.85,130.63-17.38,176.38H821.24Z"/>
        </g>
      </g>
      <path class="cls-1" d="M580.16,556.01c67.18,91.31,87.47,242.05,87.47,242.05,0,0-38.5,26.35-186.65,26.35h-.49c-148.15,0-186.65-26.35-186.65-26.35,0,0,20.29-150.75,87.47-242.05-171.98,108.95-218.58,803-218.58,803H798.75s-46.6-694.05-218.58-803Z"/>
    </g>
    <g>
      <path class="cls-6" d="M388.59,894.55c0,6.73-3.88,10.83-10.04,12.09-1.71,.34-4.55,.34-6.5,.34l-14.94-.11v5.7l-13.23-10.83,13.23-10.83v5.7l16.77,.11c1.59,0,2.29-.92,2.29-1.82,0-1.7-1.59-2.29-6.39-4.55-7.65-3.66-13.57-6.28-13.57-14.6,0-6.5,4.68-10.95,11.53-11.86,1.37-.23,3.99-.23,5.58-.23,3.43,0,13.01,.23,13.01,.23v10.38l-15.74-.23c-1.37,0-2.06,.92-2.06,1.82,0,1.37,1.14,1.93,5.58,3.99,9.35,4.33,14.49,6.73,14.49,14.71Zm24.76-.81c0,1.93-1.71,3.54-4.8,3.54-3.32,0-4.8-1.59-4.8-3.54v-30.01h-12.89v31.04c0,6.84,5.7,13.34,17.56,13.34s17.56-6.39,17.56-13.34v-31.04h-12.67v30.01h.04Zm52.25,.23c0,8.55-5.81,13.23-14.26,13.23h-21.33v-43.46h20.54c9.24,0,13.92,5.14,13.92,11.86,0,3.43-1.59,6.39-4.8,8.55,3.77,2.06,5.92,5.25,5.92,9.8v.02Zm-22.92-13.01h5.92c2.29,0,3.32-1.59,3.32-3.88,0-2.4-1.03-3.88-3.32-3.88h-5.92v7.76Zm10.04,12.43c0-2.62-1.26-4.1-3.54-4.1h-6.5v8.21h6.5c2.4,0,3.54-1.59,3.54-4.1Z"/>
      <path class="cls-3" d="M508.24,863.76h12.67v30.57c0,7.07-5.02,13.46-15.63,13.46-4.55,0-8.1-1.37-10.61-3.43-2.51,2.06-5.92,3.43-10.16,3.43-11.3,0-15.97-6.39-15.97-13.46v-30.57h12.67v30.34c0,1.26,.69,2.85,3.54,2.85s3.65-1.48,3.65-2.85v-30.34h12.67v30.34c0,1.26,.69,2.85,3.54,2.85s3.65-1.48,3.65-2.85v-30.34h-.04Zm67.19,17.11v-17.11h-12.56v18.25c0,6.05,4.11,10.61,11.06,12.56v12.56h12.89v-12.56c7.07-1.93,10.95-6.5,10.95-12.56v-6.73c0-.69,.34-1.03,1.03-1.03h5.58v5.47l13.23-10.83-13.23-10.83v5.47h-8.79c-7.42,0-10.49,4.33-10.49,10.49v6.84c0,1.59-1.14,3.54-4.91,3.54s-4.8-1.93-4.8-3.54h.04Zm-15.74-4.69v31.04h-12.67v-12.67h-9.58v12.56h-12.67v-30.9c0-7.76,6.39-13.68,17.45-13.68s17.45,5.81,17.45,13.68l.02-.02Zm-12.67,8.43v-7.76c0-2.06-1.48-3.54-4.8-3.54s-4.8,1.48-4.8,3.54v7.76h9.6Z"/>
    </g>
  </g>
  <g>
    <g>
      <g>
        <ellipse class="cls-5" cx="276.71" cy="306.53" rx="39.38" ry="53.03"/>
        <ellipse class="cls-5" cx="684.78" cy="306.53" rx="39.38" ry="53.03"/>
      </g>
      <g>
        <ellipse class="cls-5" cx="480.75" cy="268.46" rx="214.52" ry="234.58"/>
        <g>
          <g>
            <ellipse class="cls-8" cx="365.5" cy="335.82" rx="44.13" ry="34.84"/>
            <ellipse class="cls-8" cx="586.14" cy="335.82" rx="44.13" ry="34.84"/>
          </g>
          <g>
            <ellipse class="cls-7" cx="400.5" cy="300.59" rx="12.77" ry="16.84"/>
            <ellipse class="cls-7" cx="551.46" cy="300.59" rx="12.77" ry="16.84"/>
          </g>
          <path class="cls-4" d="M415.91,382.75c3.92,7.64,10.45,13.71,17.89,17.9,8.53,4.8,18.17,7.05,27.83,8.08,9.9,1.05,20.13,1.21,30.03-.02,9.33-1.16,18.57-3.68,26.6-8.7s14.68-12.33,17.98-21.35c.46-1.27-.52-2.74-1.75-3.08-1.39-.38-2.61,.47-3.08,1.75-2.56,7.01-7.7,12.91-13.79,17.12-7.07,4.89-15.26,7.6-23.7,8.94-9.24,1.47-18.82,1.38-28.13,.71-9.06-.65-18.31-2.27-26.55-6.25s-14.93-9.68-19.01-17.62c-1.47-2.86-5.79-.34-4.32,2.52h0Z"/>
        </g>
      </g>
    </g>
    <g>
      <g>
        <path class="cls-2" d="M480.75,0c-118.48,0-214.52,112.69-214.52,251.7,28.71-36.02,124.53-72.03,214.52-72.03s185.82,36.02,214.52,72.03C695.27,112.69,599.23,0,480.75,0Z"/>
        <g id="g3644">
          <path id="path3620" class="cls-3" d="M458.92,113.41h23.45s1.89-.03,1.89-1.62c0-1.41-1.96-2.23-1.96-2.23l-8.12-4.1s-6.68-2.6-6.68-9.38c0-10.74,11.99-10.08,11.99-10.08h13.09v8.17l19.55-16.19-19.54-16.19v8.17h-17.08s-12.97,.45-20.43,7.91c-4.28,4.28-6.85,9.64-6.85,16.8,0,4.17,1.26,8.31,3.31,11.86,2.59,4.48,7.38,6.88,7.38,6.88h0Z"/>
          <path id="path3622" class="cls-10" d="M501.99,94.18h-23.45s-1.89,.03-1.89,1.62c0,1.41,1.96,2.23,1.96,2.23l8.12,4.1s6.68,2.6,6.68,9.38c0,10.74-11.99,10.08-11.99,10.08h-13.09v-8.17l-19.55,16.19,19.54,16.19v-8.17h17.08s12.99,.18,20.93-7.76c4.28-4.28,6.92-10.36,6.92-17.52,0-4.17-1.26-7.08-3.31-10.64-2.59-4.48-7.96-7.53-7.96-7.53h0Z"/>
        </g>
      </g>
      <g>
        <path class="cls-9" d="M695.27,251.71c-28.24-38.2-121.55-76.32-209.2-76.32-1.77,0-3.55,.02-5.33,.06-1.78-.03-3.55-.06-5.33-.06-87.65,0-180.96,38.12-209.2,76.32,.01,.01,.02,.03,.03,.05,.03,.04,.07,.08,.1,.13,0,0,0,0,0,0,107.33,101.19,114.25-36.98,214.26-37.22h0s.09,0,.13,0c.04,0,.09,0,.13,0h0c100.01,.24,106.93,138.41,214.26,37.22,0,0,0,0,0,0,.03-.04,.07-.08,.1-.13,.01-.01,.02-.03,.03-.05Z"/>
        <path class="cls-10" d="M480.88,214.54h0s-.09,0-.13,0c-.04,0-.09,0-.13,0h0c-100.01,.24-106.93,138.41-214.26,37.22h0c9.95,12.15,20.59,24.01,33.74,32.59,13.14,8.58,29.16,13.66,44.64,11.07,20.29-3.39,36.04-18.84,51.18-32.75,14.39-13.23,29.67-25.85,47.33-34.26,11.46-5.46,23.64-8.19,36.09-9.78,.94-.12,1.89-.12,2.83,0,12.46,1.59,24.63,4.32,36.09,9.78,17.66,8.41,32.94,21.03,47.33,34.26,15.14,13.91,30.88,29.36,51.18,32.75,15.48,2.59,31.51-2.5,44.64-11.07,13.15-8.58,23.79-20.45,33.74-32.59h0c-107.33,101.19-114.25-36.99-214.26-37.22Z"/>
      </g>
    </g>
  </g>
</svg>