<?xml version="1.0" encoding="utf-8"?>
<!-- Generator: Adobe Illustrator 27.0.0, SVG Export Plug-In . SVG Version: 6.00 Build 0)  -->
<svg version="1.1" id="Layer_1" xmlns="http://www.w3.org/2000/svg" xmlns:xlink="http://www.w3.org/1999/xlink" x="0px" y="0px"
	 viewBox="0 0 257.8 170.4" style="enable-background:new 0 0 257.8 170.4;" xml:space="preserve">
<style type="text/css">
	.st0{fill:#FFCD37;}
	.st1{fill:#079146;}
	.st2{fill:#FFFFFF;}
	.st3{fill:none;stroke:#333333;stroke-width:4;stroke-miterlimit:10;}
	.st4{fill:#333333;}
</style>
<g>
	<g>
		<g>
			<g>
				<polygon class="st1" points="222.8,73 255,73 229.9,2 204.2,2 				"/>
				<polygon class="st0" points="204.2,2 177.9,2 191.5,73 222.8,73 				"/>
				<polygon class="st0" points="153.5,2 128.9,2 128.9,73 160.6,73 				"/>
				<polygon class="st1" points="160.4,73 192.1,73 178.5,2 153.2,2 				"/>
				<polygon class="st0" points="35,73 2.8,73 27.9,2 53.6,2 				"/>
				<polygon class="st1" points="53.6,2 79.9,2 66.3,73 35,73 				"/>
				<polygon class="st1" points="104.3,2 128.9,2 128.9,73 97.1,73 				"/>
				<polygon class="st0" points="97.4,73 65.7,73 79.3,2 104.6,2 				"/>
			</g>
			<rect x="19.7" y="73" class="st2" width="218.3" height="81.9"/>
		</g>
		<path class="st4" d="M240.1,156.9H17.7V75H0L26.4,0h204.9l26.4,75h-17.7V156.9z M21.7,152.9h214.3V71h16.1L228.5,4H29.3L5.7,71
			h16.1V152.9z"/>
	</g>
	<path class="st1" d="M88.6,138.6c0.3-1.5,0.5-3,0.5-4.6c0-13-11.1-23.6-24.7-23.6c-1.3,0-2.5,0.1-3.8,0.3
		c-1.2-6.1-7.3-11.2-15.2-12.2c-7-0.8-13.5,1.9-16.6,6.5c-11.9-3.3-23-0.8-27,6.9l0,0v58.5h77.7c0,0,0,0,0,0l17.6,0
		c5-3,8.3-8.5,8.3-14.7C105.5,146.4,97.9,138.7,88.6,138.6z"/>
</g>
</svg>
