<?xml version="1.0" encoding="utf-8"?>
<svg version="1.1" xmlns="http://www.w3.org/2000/svg" xmlns:xlink="http://www.w3.org/1999/xlink" x="0px" y="0px"
	 viewBox="0 0 474.4 237.5" style="enable-background:new 0 0 474.4 237.5;" xml:space="preserve">
<style type="text/css">
	.st0{fill:#EDDFD6;}
	.st1{fill:#D6AD9A;}
	.st2{fill:#FFF5F0;}
	.st3{fill:#D6A894;}
	.st4{fill:#FFFFFF;}
	.st5{fill:#ED2027;}
	.st6{fill:#D22028;}
	.st7{fill:#396E35;}
</style>
<g>
	<g>
		<g>
			<path class="st0" d="M259.7,192c-17.2,6.9-37.8,2.1-51.9-9.8c-14.1-11.9-22.1-30.1-24.1-48.5c-0.8-7.6-0.6-15.4,1.4-22.8
				c3.5-13.1,12.3-24.2,21.9-33.8c32.4-32.7,75.9-54.1,121.5-59.9c11.1-1.4,22.4-1.9,33.5-0.1c23.8,3.8,45.1,18,61,36.1
				c15.9,18.1,26.9,40,36,62.4c6.9,17,12.9,34.9,12.8,53.2c-0.1,12.2-3.3,25-12,33.5c-10.8,10.5-27.3,12.1-42.4,11.4
				c-10.3-0.5-22.1-2.7-27.2-11.7l-1.8-2.5c-5.7,5.5-13.2,9.2-20.9,11.4c-10.6,2.9-21.8,3.1-32.9,2.9c-21.8-0.4-44.7-2.5-62.8-14.6
				c-3.4-2.3-6.7-4.9-8.8-8.4L259.7,192z"/>
		</g>
		<g>
			<path class="st1" d="M416.7,191c-9.7,3.2-19.5,2.6-29.4,1.3c-12-1.6-24.1-2.5-36.2-2.5c-8.1,0-16.2,0.3-24.2-0.7
				c-4.4-0.5-8.8-1.5-13.1-2.3c-9.9-1.8-19.9-2.7-29.9-2.9c-8-0.1-16.1,0.3-23.9-1.7c-6.7-1.7-13.8-1.4-20-5.2
				c-5-3.1-8.6-9-7.7-14.7c1.1-6.8,7.7-11.2,14-13.8c17.3-7.2,36.5-7.6,55.2-7.6c26.6,0,53.5,0.6,79.1,7.5
				c15.1,4.1,30.3,10.8,39.7,23.3c3.6,4.8,6,12,1.9,16.3C420.7,189.5,418.7,190.4,416.7,191z"/>
		</g>
		<g>
			<path class="st2" d="M266.8,141.3c11.9-2.1,22.5-2,34.6-2c26.6,0,53.5,0.6,79.1,7.5c7.3,2,14.6,4.5,21.3,8.1v3.3
				c-0.9,10.5-2,24.2-7.6,33.2c-5.8,9.4-16,15.4-26.6,18.4c-10.6,2.9-21.8,3.1-32.9,2.9c-21.8-0.4-44.7-2.5-62.8-14.6
				c-3.4-2.3-6.7-4.9-8.8-8.4c-2.7-4.6-3.2-10.3-3-15.7c0.2-9.5,2-19.1,5.1-28.1L266.8,141.3z"/>
		</g>
		<g>
			<g>
				<path class="st3" d="M297,205.5c5.7-5.5,6.8-14.7,4.9-22.4s-7.1-14.3-13.7-18.7c-3.8-2.5-8.1-4.3-12.6-4.6s-9.6,0.4-12.6,3.8
					l-2.4,2.5c-0.3,2.7-0.5,5.4-0.6,8.2c-0.1,5.4,0.3,11,3,15.7c2.1,3.5,5.4,6.2,8.8,8.4c6.7,4.5,14.1,7.6,21.9,9.7L297,205.5z"/>
			</g>
			<g>
				<path class="st3" d="M352.1,212.8c5.2-0.4,10.4-1.2,15.5-2.6c10.6-2.9,20.8-9,26.6-18.4c3.2-5.2,4.9-11,6-17.1l-1.4-1
					c-9.2-4.4-24.9-4.8-35.8,2.3c-10.9,7.1-17,21.5-13.2,34C350.4,211.3,351.3,212.1,352.1,212.8z"/>
			</g>
		</g>
		<circle cx="298.2" cy="162.6" r="6.1"/>
		<circle cx="355.3" cy="167.1" r="6.1"/>
		<g>
			<g>
				<path d="M264,142.8c-2.5,7.1-4.2,14.4-5.3,21.8c-1.1,7.4-2,15.7,0.4,23c2.5,7.8,9.2,12.7,16.1,16.5c6.8,3.8,14.1,6.4,21.6,8.2
					c7.7,1.8,15.6,2.8,23.5,3.4c8.2,0.6,16.4,0.8,24.6,0.6c15.8-0.3,32.4-3.3,44.6-14.3c5.3-4.8,8.9-10.9,11.1-17.6
					c2.2-6.8,3.2-14,4-21.2c0.2-1.6,0.3-3.3,0.5-4.9c0.1-1.3-1.2-2.5-2.5-2.5c-1.5,0-2.4,1.1-2.5,2.5c-0.6,6.6-1.3,13.1-2.9,19.5
					c-1.5,6.2-3.6,12.3-7.9,17.2c-9.6,11.2-24.5,15.1-38.7,16c-8,0.5-16.1,0.3-24.1-0.1c-7.4-0.3-14.9-1-22.2-2.3
					c-7.1-1.3-14.2-3.2-20.8-6.1c-3.4-1.5-6.6-3.2-9.7-5.2c-2.9-1.9-5.8-4-7.7-6.9c-4.1-5.9-3.7-13.9-3-20.7
					c0.7-7.1,2.3-14.2,4.4-21.1c0.5-1.6,1-3.1,1.5-4.6c0.4-1.3-0.5-2.7-1.7-3.1C265.7,140.6,264.4,141.5,264,142.8L264,142.8z"/>
			</g>
		</g>
		<g>
			<g>
				<path d="M256.8,178.3c-8-0.4-17.5-2.2-21.2-10.2c-1.5-3.3-1.2-6.8,0.7-9.9c1.9-3,5.1-5.1,8.2-6.7c8-4.1,17.3-6.1,26.1-7.3
					c9.3-1.2,18.7-1.4,28.1-1.4c19.8-0.1,39.8,0.1,59.5,3c9.4,1.4,18.7,3.3,27.8,6.2c7.8,2.5,15.3,5.8,22,10.6c3.2,2.3,6.2,5,8.7,8
					c2.4,2.8,4.6,6.1,5.1,9.9c0.2,1.4,0.1,2.9-0.6,4.2c-0.9,1.5-2.4,2.4-4,3c-4.4,1.6-9.2,2.5-13.9,2.7c-2.4,0.1-4.8,0-7.2-0.3
					c-1.3-0.1-2.5,1.3-2.5,2.5c0,1.5,1.2,2.4,2.5,2.5c5.3,0.6,10.6,0.3,15.9-0.8c4.6-0.9,10-2.3,12.9-6.3c2.5-3.5,2.3-8.2,0.8-12.1
					c-1.6-4.2-4.3-7.7-7.4-10.9c-13-13.5-32.3-19.2-50.1-22.6c-21.1-4-42.7-4.6-64.2-4.6c-20.2,0-41.3,0-60.1,8.4
					c-7.5,3.3-15.3,9.8-14.3,18.9c0.5,4.6,3,8.8,6.6,11.8c3.8,3.1,8.4,4.8,13.2,5.6c2.4,0.4,4.9,0.6,7.3,0.7
					C260,183.4,260,178.4,256.8,178.3L256.8,178.3z"/>
			</g>
		</g>
		<g>
			<g>
				<path d="M259,189.6c-18.7,7.4-40.2,0.8-53.8-13.2c-6.9-7.1-12-16-15.2-25.4c-3.5-10.3-5.1-21.5-3.9-32.3
					c1.2-10.8,6.3-20.6,12.9-29.1c6.5-8.2,14.1-15.5,22.1-22.3c15.8-13.5,33.8-24.5,52.9-32.7c19.2-8.3,40-13.7,60.8-15.6
					c11.7-1.1,23.6-0.8,35,2.3c9.8,2.6,19,7,27.4,12.6c18,11.8,31.8,28.8,42.5,47.3c5.6,9.7,10.4,19.8,14.7,30
					c4.6,10.8,8.8,21.8,11.7,33.2c2.7,10.7,4.2,22.2,2.5,33.3c-1.5,9.6-5.4,19.1-13.3,25.2c-7.7,5.9-17.5,7.9-27,8.4
					c-4.8,0.2-9.6,0.2-14.4-0.2c-4.3-0.4-8.7-1.1-12.7-2.8c-3.7-1.5-6.9-3.9-9-7.4c-1.6-2.8-5.9-0.3-4.3,2.5
					c5,8.6,15,11.5,24.3,12.5c10,1.1,20.6,0.8,30.4-1.7c10.2-2.6,19.2-8.4,24.6-17.6c5.5-9.2,7.2-20.4,6.8-31
					c-0.4-12.4-3.3-24.5-7.3-36.1c-3.9-11.3-8.6-22.5-13.7-33.3c-9.8-20.7-22.3-40.5-39.5-55.8c-16.5-14.7-36.8-24.9-59.1-26.6
					c-12.3-0.9-24.7,0.4-36.7,2.5c-10.7,1.9-21.2,4.6-31.4,8.1C266,31.5,246.5,41.7,229,54.7c-8.7,6.5-17,13.6-24.6,21.4
					c-7.8,8-15,16.9-19.4,27.3c-4.7,11.2-5,23.6-3.1,35.4c1.7,10.5,5.3,20.7,11,29.7c5.6,8.9,13.2,16.7,22.5,21.8
					c9.1,5,19.6,7.7,30.1,7.2c5.1-0.3,10.2-1.3,14.9-3.2c1.3-0.5,2.1-1.7,1.7-3.1C261.8,190.1,260.3,189.1,259,189.6L259,189.6z"/>
			</g>
		</g>
		<g>
			<g>
				<path d="M311.5,174.8c8.7,3.7,18.2,4.7,27.5,2.8c1.3-0.3,2.1-1.8,1.7-3.1c-0.4-1.4-1.7-2-3.1-1.7c-7.8,1.6-16.2,0.8-23.6-2.3
					c-1.2-0.5-2.7-0.4-3.4,0.9C310,172.4,310.3,174.2,311.5,174.8L311.5,174.8z"/>
			</g>
		</g>
		<g>
			<g>
				<path class="st4" d="M251.1,65.1c6.8-5.6,14.2-10.4,21.9-14.6c5.1-2.8,0.5-10.6-4.5-7.8c-8.4,4.6-16.3,10-23.7,16
					C240.2,62.4,246.6,68.7,251.1,65.1L251.1,65.1z"/>
			</g>
		</g>
		<g>
			<g>
				<path class="st4" d="M285.4,171.8c3.9,0,3.9-6,0-6C281.5,165.8,281.5,171.8,285.4,171.8L285.4,171.8z"/>
			</g>
		</g>
		<g>
			<g>
				<path class="st4" d="M367.7,182.7c3.9,0,3.9-6,0-6C363.8,176.7,363.8,182.7,367.7,182.7L367.7,182.7z"/>
			</g>
		</g>
	</g>
	<g>
		<g>
			<g>
				<path class="st5" d="M73.1,53.9c-17.2,1-31.6,13.2-42.5,26.5C15.6,98.8,4.7,121,2.8,144.6s6.1,48.5,23.8,64.2
					c17.2,15.2,41,20.3,63.8,22.6c32.3,3.2,66.3,1.5,94.9-13.8s50.3-46.8,46.3-79c-1.5-11.5-6-22.3-11.3-32.5
					c-12-22.9-29.7-44.3-54-53.1c-8.5-3.1-17.4-4.5-26.4-5.3C118.1,45.8,96,47.9,75,53.8"/>
			</g>
			<circle cx="94.5" cy="133.6" r="6.1"/>
			<circle cx="166.6" cy="121.6" r="6.1"/>
			<g>
				<g>
					<path d="M112.8,149.1c3.8,2.1,8,3.2,12.3,3c4.4-0.2,8.4-1.7,12.4-3.5c1.8-0.8,3.6-1.6,5.5-2.2c2.2-0.7,4.4-1,6.6-1.6
						c3.9-1.1,7.6-3.4,8.8-7.5c1-3.1-3.9-4.4-4.8-1.3c-0.9,3-4.7,3.9-7.3,4.5c-3.8,0.9-7.3,2.1-10.9,3.7c-3.1,1.4-6.4,2.8-9.9,3
						c-3.6,0.2-7.1-0.6-10.2-2.3C112.5,143.2,110,147.5,112.8,149.1L112.8,149.1z"/>
				</g>
			</g>
			<g>
				<path class="st6" d="M98.6,223.8c3-6.5,6.6-40.6-4.2-61.3c-2.4-4.5-5.3-8.9-9.4-11.9c-4.6-3.3-10.3-4.7-15.9-5.8
					c-21.6-4-44.1-3.7-65.6,1.1l-1,0.6c-1.4,23.1,6.7,47.1,24,62.4c17.2,15.2,41,20.3,63.8,22.6c0.7,0.1,1.3,0.1,2,0.2
					C92.4,231.7,96.1,229.2,98.6,223.8z"/>
			</g>
			<g>
				<path class="st6" d="M198.3,205.1c-19.5-11.4-29.6-35.6-25.6-57.9c3.9-22.3,20.8-41.7,43.1-45.8h1.9c0.9,1.6,1.8,3.2,2.6,4.9
					c5.4,10.2,9.9,21.1,11.3,32.5c3.3,25.8-10,51.1-30.1,68L198.3,205.1z"/>
			</g>
			<g>
				<g>
					<path d="M73.1,53.6C50.9,55,34,72.7,22,89.8C9.2,108,0.4,129.7,0,152.2c-0.3,20.7,6.7,41.9,21.1,57
						c15.2,15.8,37,22.5,58.1,25.5c22.7,3.3,46.2,4,68.8,0.1c21.7-3.7,42.8-12.4,59-27.6c14.6-13.7,25.3-32.2,27.2-52.3
						c1.1-11.2-1-22.3-5-32.7c-4-10.4-9.3-20.4-15.5-29.7c-11.5-17.2-26.9-32.3-46.5-39.6c-11.8-4.4-24.6-5.7-37.1-6.1
						c-12.6-0.4-25.3,0.5-37.8,2.7c-6.1,1.1-12.1,2.4-18,4.1c-3.1,0.9-1.8,5.7,1.3,4.8c23.3-6.5,48.5-8.7,72.5-5.1
						c10.9,1.6,21.2,4.9,30.6,10.7c8.3,5.1,15.6,11.8,21.9,19.2c6.5,7.6,11.9,16,16.6,24.8c5.5,10.2,10.2,21,11.8,32.6
						c2.6,18.8-4.3,37.7-15.8,52.5c-6,7.7-13.2,14.4-21.3,19.8c-8.8,5.9-18.7,10.3-28.9,13.3c-21.4,6.4-44.1,7.2-66.2,5.4
						c-20.6-1.6-42.3-4.9-60-16.1c-8.4-5.3-15.4-12.4-20.6-20.8c-5.2-8.4-8.5-17.9-10.2-27.6c-3.5-20.7,1.6-42,11.4-60.4
						c5-9.4,11.1-18.3,18.2-26.3c6.7-7.6,14.6-14.4,23.9-18.5c4.3-1.9,8.9-3,13.5-3.3C76.3,58.4,76.3,53.4,73.1,53.6L73.1,53.6z"/>
				</g>
			</g>
			<g>
				<path class="st7" d="M95.4,52.4c-7.7-1.7-18.6-3.8-26.5-3.3s-16,3.5-21,9.6c-0.9,1.1-1.7,2.7-1,3.9c0.5,0.9,1.7,1.2,2.7,1.4
					c11.4,2.2,23,3,34.6,2.2c-3.4,4-7,8.2-7.9,13.4c-0.9,5.2,2.2,11.4,7.5,11.9c2.3,0.2,4.6-0.7,6.6-1.7c6.6-3.3,12.4-8,16.9-13.9
					c0.9-1.1,1.8-2.4,3.2-2.7c1.7-0.4,3.4,0.7,4.9,1.7c4.5,3,9.6,5.2,14.9,6.4c4.3,1,9.2,1.1,12.6-1.6c5.2-4.2,3.6-13.3-1.7-17.4
					s-12.6-4.4-19.3-3.5c10.2-2.4,18.8-10.8,21.4-21c0.7-2.7,0.8-5.9-1.4-7.7c-1.2-1-2.8-1.2-4.3-1.3c-11.9-0.7-23.9,6-29.5,16.4
					l0.6-3.2c1-12.6-1.8-25.5-7.8-36.7c-0.4-0.8-0.9-1.6-1.6-2.2C97.5,2,95,2.4,93.3,3.6c-6,4-5,13-3.3,20.1
					C92,32.1,94.5,43,95.4,52.4z"/>
				<g>
					<path d="M96.1,50c-6.2-1.3-12.4-2.5-18.6-3.1c-5.9-0.6-12-0.4-17.7,1.4c-2.8,0.9-5.6,2.1-8,3.7c-2.5,1.7-5.2,3.8-6.6,6.5
						c-0.9,1.5-1.3,3.4-0.4,5.1c0.8,1.6,2.3,2.4,4,2.8c3.5,0.8,7.2,1.3,10.8,1.7c8.2,1,16.5,1.2,24.8,0.7c-0.6-1.4-1.2-2.8-1.8-4.3
						c-3.5,4-7.2,8.4-8.3,13.7c-1,4.5,0.1,9.5,3.4,12.8c1.6,1.7,3.7,2.7,6,3c2.9,0.3,5.7-0.8,8.2-2c4.7-2.3,9.1-5.5,12.8-9.1
						c1.9-1.8,3.5-3.8,5.1-5.8c0.4-0.5,1-1.4,1.7-1.4c1.1,0,2.3,1.2,3.1,1.7c4.7,3.1,10,5.4,15.5,6.5c5.1,1.1,10.8,1.1,14.9-2.6
						c3.4-2.9,4.2-7.7,3.3-11.9c-1-5-4.5-9.1-9.1-11.2c-5.4-2.5-11.4-2.6-17.2-1.8c0.2,1.6,0.4,3.3,0.7,4.9
						c11.1-2.7,20.5-11.8,23.2-22.9c0.7-2.8,0.8-6-0.8-8.4c-1.9-2.9-5.3-3.5-8.5-3.6c-5.8-0.1-11.6,1.4-16.7,4.2
						c-5.8,3.1-10.7,7.8-13.8,13.6c1.5,0.6,3,1.3,4.6,1.9c0.4-2.2,0.7-4.3,0.8-6.5c0.1-4.1-0.1-8.1-0.7-12.1
						c-1.1-7.9-3.6-15.5-7.3-22.6c-0.9-1.7-1.9-3.4-3.8-4.2c-1.9-0.8-4-0.7-5.8,0.1c-3.1,1.3-5.3,4-6.5,7.1
						c-2.2,6-0.5,12.9,0.9,18.9c2,8.5,3.9,17.1,4.8,25.8c0.1,1.3,1.1,2.5,2.5,2.5c1.3,0,2.6-1.1,2.5-2.5c-0.7-7.2-2.1-14.3-3.6-21.4
						C93,25.2,91,19.3,91.2,13.4c0.1-2.2,0.6-4.6,2-6.3c0.7-0.9,1.7-1.7,2.9-2c1.3-0.3,1.8,0.2,2.4,1.3c3.5,6.2,5.8,13.2,7,20.1
						c0.7,3.8,0.9,7.8,0.9,11.7c0,2.6-0.2,3.9-0.7,6.5c-0.2,1.2,0.2,2.5,1.4,2.9c1.1,0.5,2.5,0.1,3.1-1c4.6-8.3,13.4-14.2,22.9-15.1
						c2-0.2,4.8-0.5,6.7,0.4c1.7,0.8,1.5,3.2,1.2,4.7c-0.9,4.5-3.3,8.8-6.4,12.1c-3.6,3.9-8.2,6.6-13.3,7.9c-1.2,0.3-2,1.6-1.8,2.7
						c0.2,1.1,1.2,2.3,2.5,2.2c7.2-0.9,17.6-0.8,20.8,7.1c1.2,2.8,1.3,6.3-0.6,8.6c-2.6,3-7.3,2.8-10.8,2c-4.8-1-9.4-2.9-13.6-5.5
						c-2.1-1.3-4.1-2.9-6.7-2.9c-2.6,0.1-4.3,1.9-5.8,3.8c-2.8,3.6-6.1,6.8-9.7,9.4c-1.9,1.4-3.9,2.6-6,3.6c-1.8,0.9-4.1,1.9-6,1.5
						c-3.4-0.8-5.1-5.1-4.8-8.4c0.4-4.8,4.2-9.1,7.2-12.6c1.3-1.5,0.6-4.4-1.8-4.3c-6.6,0.4-13.2,0.4-19.8-0.2
						c-3.1-0.3-6.3-0.6-9.4-1.1c-1.6-0.3-3.2-0.5-4.8-0.8c-0.3-0.1-0.9-0.4-1.2-0.3c0,0-0.1-0.1-0.1-0.1c0.2,0.1,0.2,0.2,0.2,0.4
						c0.1-0.1,0.2-0.5,0.2-0.6c1.1-2,3.4-3.8,5.3-5c2.1-1.4,4.5-2.4,6.9-3.1c4.9-1.4,9.9-1.6,15-1.1c6.1,0.5,12.1,1.7,18.1,3
						C97.9,55.5,99.2,50.7,96.1,50z"/>
				</g>
			</g>
			<circle class="st4" cx="75.2" cy="156" r="4.4"/>
			<circle class="st4" cx="190.6" cy="136.6" r="4.4"/>
		</g>
		<g>
			<g>
				<path class="st4" d="M49.8,78.1c-4.4,2.9-8,6.6-10.7,11.2c-3,5,4.8,9.5,7.8,4.5c1.9-3.2,4.4-5.9,7.4-7.9c2-1.3,2.9-4,1.6-6.2
					C54.8,77.7,51.9,76.8,49.8,78.1L49.8,78.1z"/>
			</g>
		</g>
	</g>
</g>
</svg>
